<mxfile host="app.diagrams.net" modified="2021-11-30T22:49:45.037Z" agent="5.0 (Windows NT 10.0; Win64; x64) AppleWebKit/537.36 (KHTML, like Gecko) Chrome/96.0.4664.55 Safari/537.36 Edg/96.0.1054.34" etag="RfQFtLaWk8jNdWoL2sgc" version="15.8.7" type="github">
  <diagram id="C5RBs43oDa-KdzZeNtuy" name="Page-1">
    <mxGraphModel dx="826" dy="614" grid="1" gridSize="10" guides="1" tooltips="1" connect="1" arrows="1" fold="1" page="1" pageScale="1" pageWidth="827" pageHeight="1169" math="0" shadow="0">
      <root>
        <mxCell id="WIyWlLk6GJQsqaUBKTNV-0" />
        <mxCell id="WIyWlLk6GJQsqaUBKTNV-1" parent="WIyWlLk6GJQsqaUBKTNV-0" />
        <mxCell id="PU368cgmyR8xg9z96_Fw-0" value="" style="ellipse;whiteSpace=wrap;html=1;gradientColor=none;gradientDirection=east;" vertex="1" parent="WIyWlLk6GJQsqaUBKTNV-1">
          <mxGeometry x="354" y="10" width="120" height="60" as="geometry" />
        </mxCell>
        <mxCell id="PU368cgmyR8xg9z96_Fw-1" value="Начало" style="text;html=1;strokeColor=none;fillColor=none;align=center;verticalAlign=middle;whiteSpace=wrap;rounded=0;" vertex="1" parent="WIyWlLk6GJQsqaUBKTNV-1">
          <mxGeometry x="384" y="25" width="60" height="30" as="geometry" />
        </mxCell>
        <mxCell id="PU368cgmyR8xg9z96_Fw-2" value="" style="endArrow=classic;html=1;rounded=0;exitX=0.5;exitY=1;exitDx=0;exitDy=0;entryX=0.507;entryY=0.185;entryDx=0;entryDy=0;entryPerimeter=0;" edge="1" parent="WIyWlLk6GJQsqaUBKTNV-1" source="PU368cgmyR8xg9z96_Fw-0" target="PU368cgmyR8xg9z96_Fw-3">
          <mxGeometry width="50" height="50" relative="1" as="geometry">
            <mxPoint x="390" y="140" as="sourcePoint" />
            <mxPoint x="414" y="100" as="targetPoint" />
          </mxGeometry>
        </mxCell>
        <mxCell id="PU368cgmyR8xg9z96_Fw-3" value="" style="shape=manualInput;whiteSpace=wrap;html=1;gradientColor=none;gradientDirection=east;" vertex="1" parent="WIyWlLk6GJQsqaUBKTNV-1">
          <mxGeometry x="336" y="90" width="156" height="60" as="geometry" />
        </mxCell>
        <mxCell id="PU368cgmyR8xg9z96_Fw-4" value="M, N" style="text;html=1;strokeColor=none;fillColor=none;align=center;verticalAlign=middle;whiteSpace=wrap;rounded=0;" vertex="1" parent="WIyWlLk6GJQsqaUBKTNV-1">
          <mxGeometry x="384" y="110" width="60" height="30" as="geometry" />
        </mxCell>
        <mxCell id="PU368cgmyR8xg9z96_Fw-5" value="" style="endArrow=classic;html=1;rounded=0;exitX=0.5;exitY=1;exitDx=0;exitDy=0;" edge="1" parent="WIyWlLk6GJQsqaUBKTNV-1" source="PU368cgmyR8xg9z96_Fw-3">
          <mxGeometry width="50" height="50" relative="1" as="geometry">
            <mxPoint x="390" y="240" as="sourcePoint" />
            <mxPoint x="414" y="190" as="targetPoint" />
          </mxGeometry>
        </mxCell>
        <mxCell id="PU368cgmyR8xg9z96_Fw-9" value="" style="shape=loopLimit;whiteSpace=wrap;html=1;gradientColor=none;gradientDirection=east;" vertex="1" parent="WIyWlLk6GJQsqaUBKTNV-1">
          <mxGeometry x="364" y="270" width="100" height="50" as="geometry" />
        </mxCell>
        <mxCell id="PU368cgmyR8xg9z96_Fw-10" value="" style="shape=loopLimit;whiteSpace=wrap;html=1;gradientColor=none;gradientDirection=east;rotation=-180;" vertex="1" parent="WIyWlLk6GJQsqaUBKTNV-1">
          <mxGeometry x="364" y="480" width="100" height="60" as="geometry" />
        </mxCell>
        <mxCell id="PU368cgmyR8xg9z96_Fw-13" value="" style="rounded=0;whiteSpace=wrap;html=1;gradientColor=none;gradientDirection=east;" vertex="1" parent="WIyWlLk6GJQsqaUBKTNV-1">
          <mxGeometry x="354" y="380" width="120" height="60" as="geometry" />
        </mxCell>
        <mxCell id="PU368cgmyR8xg9z96_Fw-14" value="" style="rounded=0;whiteSpace=wrap;html=1;gradientColor=none;gradientDirection=east;" vertex="1" parent="WIyWlLk6GJQsqaUBKTNV-1">
          <mxGeometry x="354" y="190" width="120" height="40" as="geometry" />
        </mxCell>
        <mxCell id="PU368cgmyR8xg9z96_Fw-15" value="i := 0&lt;br&gt;j := 0" style="text;html=1;strokeColor=none;fillColor=none;align=center;verticalAlign=middle;whiteSpace=wrap;rounded=0;" vertex="1" parent="WIyWlLk6GJQsqaUBKTNV-1">
          <mxGeometry x="384" y="195" width="60" height="30" as="geometry" />
        </mxCell>
        <mxCell id="PU368cgmyR8xg9z96_Fw-17" value="" style="endArrow=classic;html=1;rounded=0;exitX=0.5;exitY=1;exitDx=0;exitDy=0;" edge="1" parent="WIyWlLk6GJQsqaUBKTNV-1" source="PU368cgmyR8xg9z96_Fw-14">
          <mxGeometry width="50" height="50" relative="1" as="geometry">
            <mxPoint x="390" y="300" as="sourcePoint" />
            <mxPoint x="414" y="270" as="targetPoint" />
          </mxGeometry>
        </mxCell>
        <mxCell id="PU368cgmyR8xg9z96_Fw-18" value="Text" style="text;html=1;strokeColor=none;fillColor=none;align=center;verticalAlign=middle;whiteSpace=wrap;rounded=0;" vertex="1" parent="WIyWlLk6GJQsqaUBKTNV-1">
          <mxGeometry x="384" y="280" width="60" height="30" as="geometry" />
        </mxCell>
      </root>
    </mxGraphModel>
  </diagram>
</mxfile>
